<svg  width="1278pt" height="1280pt" version="1.0" viewBox="0 0 1278 1280" xmlns="http://www.w3.org/2000/svg" xmlns:xhtml="http://www.w3.org/1999/xhtml">
 <g transform="translate(0 1280) scale(.1 -.1)" fill="#fff">
  <path d="m5905 12779c-144-23-210-41-289-81-180-91-271-274-298-605-12-142-8-267 22-755 13-210-1-277-72-345-50-48-106-68-300-107-209-42-227-49-558-201-433-199-588-258-628-236-11 6-102 105-202 221-370 429-529 578-721 675-106 54-168 68-278 63-202-10-353-110-642-426-79-86-185-200-235-252-390-412-394-686-12-1107 45-51 198-204 338-340s259-254 263-263c6-12-9-44-56-116-210-322-386-698-507-1084-97-310-107-331-178-363-45-20-58-21-317-16-471 7-661 4-755-15-262-52-405-212-449-501-7-44-16-107-22-141-20-130-3-668 27-838 30-178 86-298 177-387 70-68 144-110 257-142 162-47 238-52 737-49l463 3 9-23c5-13 30-90 56-173 67-215 154-430 261-644 110-221 174-329 248-421 117-144 135-193 100-267-10-20-148-160-334-338-412-395-494-484-568-616-78-137-96-273-53-400 26-79 110-211 216-339 98-119 330-356 455-464 299-260 461-330 651-281 197 51 350 172 674 530 169 188 540 577 555 583 4 1 90-38 191-88 308-152 586-254 950-350 308-81 298-71 281-273-7-78-17-299-22-492-5-192-12-390-16-440-6-102 9-307 31-400 36-158 102-264 204-333 109-72 210-100 465-126 174-19 292-20 431-6 55 6 188 17 296 25 283 21 386 58 497 180 89 97 146 234 179 428 20 122 23 496 5 702-6 72-19 242-28 378-17 245-17 248 3 275 28 39 72 58 286 122 106 31 231 71 279 88 223 79 537 220 706 316 46 26 90 46 98 44 7-2 58-53 111-114 243-275 569-628 672-726 128-123 276-226 389-271 72-29 86-31 202-32 113 0 131 3 188 26 114 49 172 92 401 300 454 414 593 588 637 799 39 188-49 386-276 623-89 93-447 422-584 536-86 72-159 147-172 178-30 70-17 111 102 308 171 286 316 598 428 922 43 126 56 150 98 189 41 39 96 67 168 85 73 18 342 16 565-4 355-33 498-31 650 9 179 46 299 161 349 334 56 193 87 719 58 982-44 407-109 552-293 652-187 102-422 118-1089 77-233-15-312 0-383 74-45 47-69 109-112 295-42 184-75 269-175 450-206 373-270 525-270 646 0 106 15 128 212 304 522 468 678 688 678 955 0 98-19 177-65 271-49 100-104 171-267 347-78 84-190 205-250 269-236 254-411 358-603 358-104 0-182-23-293-87-168-97-307-229-624-589-254-290-294-320-413-312-69 4-121 28-276 123-151 94-224 124-491 204-390 117-499 164-583 248-68 68-69 76-49 371 22 314 24 633 5 757-53 355-201 544-478 616-59 15-136 22-313 30-129 5-273 14-320 19-123 14-268 10-405-11zm680-4550c242-28 507-110 715-221 610-325 929-918 880-1638-41-620-360-1104-909-1384-635-323-1460-293-2056 76-362 225-618 572-721 974-91 361-67 798 63 1128 50 128 82 188 161 307 370 552 1095 846 1867 758z"/>
 </g>
</svg>
