<svg version="1.0" viewBox="0 0 1261 1280" xmlns="http://www.w3.org/2000/svg" xmlns:xhtml="http://www.w3.org/1999/xhtml">
  <g transform="translate(0 1280) scale(.1 -.1)">
    <path fill="#fff" d="m6050 12785c-253-70-587-333-1265-995-589-576-1509-1531-2360-2450-104-113-194-208-200-212-5-4-508-8-1117-8h-1108v-2725-2725h1118l1117-1 205-226c1253-1386 2521-2674 3048-3098 527-425 885-455 996-85 16 51 17 513 16 6093 0 5434-2 6045-16 6115-42 208-145 318-307 328-46 2-92-2-127-11z"/>
  </g>
  <path d="m23.518 1260.4 1224.7-1246.5" stroke="#c00" stroke-width="300px"/>
</svg>
